Sprint_05400001_forces_filt999Hz.mot
version=1
nRows=43
nColumns=19
inDegrees=yes
endheader
time	R_ground_force_vx	R_ground_force_vy	R_ground_force_vz	R_ground_force_px	R_ground_force_py	R_ground_force_pz	R_ground_torque_x	R_ground_torque_y	R_ground_torque_z	L_ground_force_vx	L_ground_force_vy	L_ground_force_vz	L_ground_force_px	L_ground_force_py	L_ground_force_pz	L_ground_torque_x	L_ground_torque_y	L_ground_torque_z	
0.000000	188.261101	2238.472311	-111.342995	  0.791799	  0.000000	 -0.264142	  0.000000	 95.198889	  0.000000	  0.000000	  0.000000	  0.000000	  0.680269	  0.000000	 -0.401841	  0.000000	  0.000000	  0.000000
0.000500	188.020481	2237.541113	-111.816780	  0.791784	  0.000000	 -0.264173	  0.000000	 94.897893	  0.000000	  0.000000	  0.000000	  0.000000	  0.683135	 -0.000000	 -0.401944	  0.000000	  0.000000	  0.000000
0.001000	180.097961	2204.139545	-79.909919	  0.787628	  0.000000	 -0.262552	  0.000000	 88.131987	  0.000000	  0.000000	  0.000000	  0.000000	  0.686000	 -0.000000	 -0.402047	  0.000000	  0.000000	  0.000000
0.001500	179.933012	2202.904170	-80.307352	  0.787831	  0.000000	 -0.262675	  0.000000	 87.789668	  0.000000	  0.000000	  0.000000	  0.000000	  0.688865	 -0.000000	 -0.402150	  0.000000	  0.000000	  0.000000
0.002000	183.836674	2170.417096	-52.444128	  0.785073	  0.000000	 -0.261176	  0.000000	 76.996935	  0.000000	  0.000000	  0.000000	  0.000000	  0.691730	 -0.000000	 -0.402253	  0.000000	  0.000000	  0.000000
0.002500	183.671106	2169.640554	-52.765209	  0.785056	  0.000000	 -0.261132	  0.000000	 76.763896	  0.000000	  0.000000	  0.000000	  0.000000	  0.694595	  0.000000	 -0.402356	  0.000000	  0.000000	  0.000000
0.003000	200.850532	2146.002472	-29.784853	  0.783425	  0.000000	 -0.259682	  0.000000	 61.991390	  0.000000	  0.000000	  0.000000	  0.000000	  0.697460	  0.000000	 -0.402459	  0.000000	  0.000000	  0.000000
0.003500	200.455467	2144.616718	-30.182174	  0.783573	  0.000000	 -0.259768	  0.000000	 61.720899	  0.000000	  0.000000	  0.000000	  0.000000	  0.700325	  0.000000	 -0.402562	  0.000000	  0.000000	  0.000000
0.004000	215.880746	2131.353438	-16.586028	  0.779072	  0.000000	 -0.258889	  0.000000	 42.444345	  0.000000	  0.000000	  0.000000	  0.000000	  0.703190	  0.000000	 -0.402665	  0.000000	  0.000000	  0.000000
0.004500	215.485069	2130.274071	-16.678120	  0.779050	  0.000000	 -0.258938	  0.000000	 42.533933	  0.000000	  0.000000	  0.000000	  0.000000	  0.706055	  0.000000	 -0.402768	  0.000000	  0.000000	  0.000000
0.005000	222.976387	2114.873313	-14.526117	  0.771983	  0.000000	 -0.259579	  0.000000	 24.719509	  0.000000	  0.000000	  0.000000	  0.000000	  0.708921	  0.000000	 -0.402871	  0.000000	  0.000000	  0.000000
0.005500	222.808984	2113.490054	-14.541864	  0.772126	  0.000000	 -0.259638	  0.000000	 24.805753	  0.000000	  0.000000	  0.000000	  0.000000	  0.711936	  0.000000	 -0.402730	  0.000000	  0.000000	  0.000000
0.006000	230.453496	2088.322351	-22.002948	  0.767301	  0.000000	 -0.261505	  0.000000	 13.500760	  0.000000	  0.000000	  0.000000	  0.000000	  0.714952	  0.000000	 -0.402589	  0.000000	  0.000000	  0.000000
0.006500	230.132902	2087.093036	-21.789765	  0.767387	  0.000000	 -0.261547	  0.000000	 13.658191	  0.000000	  0.000000	  0.000000	  0.000000	  0.717967	  0.000000	 -0.402447	  0.000000	  0.000000	  0.000000
0.007000	244.110412	2061.466177	-35.430705	  0.765750	  0.000000	 -0.263698	  0.000000	  6.260510	  0.000000	  0.000000	  0.000000	  0.000000	  0.720983	  0.000000	 -0.402306	  0.000000	  0.000000	  0.000000
0.007500	243.560338	2060.238291	-35.217477	  0.765836	  0.000000	 -0.263712	  0.000000	  6.105091	  0.000000	  0.000000	  0.000000	  0.000000	  0.723998	  0.000000	 -0.402165	  0.000000	  0.000000	  0.000000
0.008000	261.658317	2037.509136	-45.959292	  0.763430	  0.000000	 -0.265360	  0.000000	 -3.468779	  0.000000	  0.000000	  0.000000	  0.000000	  0.727014	  0.000000	 -0.402023	  0.000000	  0.000000	  0.000000
0.008500	261.260236	2036.435341	-45.593431	  0.763399	  0.000000	 -0.265386	  0.000000	 -3.338855	  0.000000	  0.000000	  0.000000	  0.000000	  0.730029	  0.000000	 -0.401882	  0.000000	  0.000000	  0.000000
0.009000	276.230756	2011.415828	-42.220910	  0.759981	  0.000000	 -0.266375	  0.000000	-17.257094	  0.000000	  0.000000	  0.000000	  0.000000	  0.733045	  0.000000	 -0.401741	  0.000000	  0.000000	  0.000000
0.009500	275.603203	2010.496197	-42.160183	  0.759952	  0.000000	 -0.266382	  0.000000	-17.304710	  0.000000	  0.000000	  0.000000	  0.000000	  0.736060	  0.000000	 -0.401599	  0.000000	  0.000000	  0.000000
0.010000	283.097504	1981.812960	-22.689680	  0.755873	  0.000000	 -0.265703	  0.000000	-31.382282	  0.000000	  0.000000	  0.000000	  0.000000	  0.739076	  0.000000	 -0.401458	  0.000000	  0.000000	  0.000000
0.010500	282.698248	1980.894981	-22.934089	  0.755841	  0.000000	 -0.265710	  0.000000	-31.416947	  0.000000	  0.000000	  0.000000	  0.000000	  0.742057	  0.000000	 -0.401429	  0.000000	  0.000000	  0.000000
0.011000	287.599138	1941.986667	  1.190305	  0.751196	  0.000000	 -0.263735	  0.000000	-42.737018	  0.000000	  0.000000	  0.000000	  0.000000	  0.745038	  0.000000	 -0.401400	  0.000000	  0.000000	  0.000000
0.011500	287.275595	1941.070415	  0.869640	  0.751350	  0.000000	 -0.263835	  0.000000	-42.780564	  0.000000	  0.000000	  0.000000	  0.000000	  0.748020	  0.000000	 -0.401372	  0.000000	  0.000000	  0.000000
0.012000	298.662049	1895.599056	 16.601665	  0.746975	  0.000000	 -0.261881	  0.000000	-47.420791	  0.000000	  0.000000	  0.000000	  0.000000	  0.751001	  0.000000	 -0.401343	  0.000000	  0.000000	  0.000000
0.012500	298.109048	1894.837195	 16.509916	  0.747071	  0.000000	 -0.261866	  0.000000	-47.505439	  0.000000	  0.000000	  0.000000	  0.000000	  0.753982	  0.000000	 -0.401314	  0.000000	  0.000000	  0.000000
0.013000	316.133648	1855.620099	 24.231042	  0.746688	  0.000000	 -0.259268	  0.000000	-43.778083	  0.000000	  0.000000	  0.000000	  0.000000	  0.756964	  0.000000	 -0.401286	  0.000000	  0.000000	  0.000000
0.013500	315.580077	1854.707528	 23.986739	  0.746782	  0.000000	 -0.259305	  0.000000	-44.080116	  0.000000	  0.000000	  0.000000	  0.000000	  0.759945	  0.000000	 -0.401257	  0.000000	  0.000000	  0.000000
0.014000	330.477193	1827.390372	 29.953073	  0.750139	  0.000000	 -0.255691	  0.000000	-37.475819	  0.000000	  0.000000	  0.000000	  0.000000	  0.762927	  0.000000	 -0.401228	  0.000000	  0.000000	  0.000000
0.014500	330.151938	1826.174580	 29.861388	  0.750162	  0.000000	 -0.255803	  0.000000	-37.702008	  0.000000	  0.000000	  0.000000	  0.000000	  0.765908	  0.000000	 -0.401199	  0.000000	  0.000000	  0.000000
0.015000	339.327572	1801.907188	 38.269098	  0.755192	  0.000000	 -0.254260	  0.000000	-37.750911	  0.000000	  0.000000	  0.000000	  0.000000	  0.768889	  0.000000	 -0.401171	  0.000000	  0.000000	  0.000000
0.015500	339.001757	1800.693427	 38.101148	  0.755015	  0.000000	 -0.254373	  0.000000	-38.040821	  0.000000	  0.000000	  0.000000	  0.000000	  0.771970	  0.000000	 -0.401106	  0.000000	  0.000000	  0.000000
0.016000	345.202484	1778.560196	 52.841228	  0.759271	  0.000000	 -0.254680	  0.000000	-49.611051	  0.000000	  0.000000	  0.000000	  0.000000	  0.775051	  0.000000	 -0.401042	  0.000000	  0.000000	  0.000000
0.016500	344.876114	1777.653720	 52.749599	  0.759170	  0.000000	 -0.254682	  0.000000	-49.818769	  0.000000	  0.000000	  0.000000	  0.000000	  0.778132	  0.000000	 -0.400977	  0.000000	  0.000000	  0.000000
0.017000	345.965699	1754.755402	 70.388823	  0.759901	  0.000000	 -0.254517	  0.000000	-66.195651	  0.000000	  0.000000	  0.000000	  0.000000	  0.781212	  0.000000	 -0.400912	  0.000000	  0.000000	  0.000000
0.017500	345.638779	1753.698524	 70.144630	  0.759796	  0.000000	 -0.254542	  0.000000	-66.330523	  0.000000	  0.000000	  0.000000	  0.000000	  0.784293	  0.000000	 -0.400848	  0.000000	  0.000000	  0.000000
0.018000	341.922392	1721.184943	 81.527728	  0.759048	  0.000000	 -0.255580	  0.000000	-79.584550	  0.000000	  0.000000	  0.000000	  0.000000	  0.787374	  0.000000	 -0.400783	  0.000000	  0.000000	  0.000000
0.018500	341.747517	1720.130330	 81.436145	  0.759083	  0.000000	 -0.255642	  0.000000	-79.480990	  0.000000	  0.000000	  0.000000	  0.000000	  0.790455	  0.000000	 -0.400719	  0.000000	  0.000000	  0.000000
0.019000	337.116143	1682.731634	 85.418709	  0.759055	  0.000000	 -0.258446	  0.000000	-89.466062	  0.000000	  0.000000	  0.000000	  0.000000	  0.793536	  0.000000	 -0.400654	  0.000000	  0.000000	  0.000000
0.019500	336.940731	1681.831950	 85.403440	  0.758949	  0.000000	 -0.258452	  0.000000	-89.336181	  0.000000	  0.000000	  0.000000	  0.000000	  0.796617	  0.000000	 -0.400590	  0.000000	  0.000000	  0.000000
0.020000	331.546951	1646.567103	 90.072630	  0.756525	  0.000000	 -0.260490	  0.000000	-95.040999	  0.000000	  0.000000	  0.000000	  0.000000	  0.799697	  0.000000	 -0.400525	  0.000000	  0.000000	  0.000000
0.020500	331.371008	1645.517252	 89.981085	  0.756560	  0.000000	 -0.260558	  0.000000	-95.058246	  0.000000	  0.000000	  0.000000	  0.000000	  0.802753	  0.000000	 -0.400482	  0.000000	  0.000000	  0.000000
0.021000	323.307468	1611.318061	102.355947	  0.749740	  0.000000	 -0.260430	  0.000000	-96.726093	  0.000000	  0.000000	  0.000000	  0.000000	  0.805809	  0.000000	 -0.400439	  0.000000	  0.000000	  0.000000
